<?xml version="1.0" standalone="no"?>
<!DOCTYPE svg PUBLIC "-//W3C//DTD SVG 20010904//EN"
 "http://www.w3.org/TR/2001/REC-SVG-20010904/DTD/svg10.dtd">
<svg version="1.0" xmlns="http://www.w3.org/2000/svg"
 width="336.000000pt" height="336.000000pt" viewBox="0 0 336.000000 336.000000"
 preserveAspectRatio="xMidYMid meet">
<metadata>
Created by potrace 1.14, written by Peter Selinger 2001-2017
</metadata>
<g transform="translate(0.000000,336.000000) scale(0.100000,-0.100000)"
fill="#000000" stroke="none">
<path d="M0 1680 l0 -1680 490 0 490 0 0 700 0 700 -70 0 -70 0 0 140 0 140
140 0 140 0 0 70 0 70 210 0 210 0 0 -70 0 -70 140 0 140 0 0 70 0 70 210 0
210 0 0 -630 0 -630 -70 0 -70 0 0 -70 0 -70 -350 0 -350 0 0 -210 0 -210 980
0 980 0 0 1680 0 1680 -1680 0 -1680 0 0 -1680z m1680 490 l0 -70 70 0 70 0 0
70 0 70 70 0 70 0 0 -70 0 -70 70 0 70 0 0 70 0 70 70 0 70 0 0 -140 0 -140
-490 0 -490 0 0 70 0 70 70 0 70 0 0 70 0 70 140 0 140 0 0 -70z m-560 -140
l0 -70 -70 0 -70 0 0 70 0 70 70 0 70 0 0 -70z"/>
<path d="M1260 1610 l0 -70 70 0 70 0 0 70 0 70 -70 0 -70 0 0 -70z"/>
<path d="M1960 1610 l0 -70 70 0 70 0 0 70 0 70 -70 0 -70 0 0 -70z"/>
<path d="M1680 1190 l0 -70 140 0 140 0 0 70 0 70 -140 0 -140 0 0 -70z"/>
<path d="M1540 770 l0 -70 210 0 210 0 0 70 0 70 -210 0 -210 0 0 -70z"/>
</g>
</svg>
